<svg width="330" height="110" viewBox="0 0 330 110" class="css-1j8o68f"><defs id="SvgjsDefs1971"></defs><g id="SvgjsG1972" featurekey="symbolContainer" transform="matrix(1,0,0,1,0,0)" fill="#003281"><rect xmlns="http://www.w3.org/2000/svg" width="110" height="110" rx="10" ry="10"></rect></g><g id="SvgjsG1973" featurekey="symbolFeature-0" transform="matrix(0.699999988079071,0,0,0.699999988079071,20,20)" fill="#ffffff"><title xmlns="http://www.w3.org/2000/svg">community</title><desc xmlns="http://www.w3.org/2000/svg">Created with Sketch.</desc><g xmlns="http://www.w3.org/2000/svg" stroke="none" stroke-width="1" fill="none" fill-rule="evenodd"><g fill="#ffffff"><path d="M49.9894066,70.612594 C61.3792785,70.612594 70.612594,61.3792785 70.612594,49.9894066 C70.612594,38.5995348 61.3792785,29.3662193 49.9894066,29.3662193 C38.5995348,29.3662193 29.3662193,38.5995348 29.3662193,49.9894066 C29.3662193,61.3792785 38.5995348,70.612594 49.9894066,70.612594 L49.9894066,70.612594 Z M61.1142011,17.1318535 C56.3063141,21.9952963 53.236347,22.2732407 50.0109902,22.2732407 C46.7856334,22.2732407 43.7391877,21.9952963 38.8994135,17.1318535 C34.0596394,12.2684108 32.4902852,7.49775813 32.4902852,7.49775813 C32.4902852,7.49775813 40.4569262,16.7252462 50.0109902,16.7252466 C59.5650542,16.7252469 67.4750713,7.49775813 67.4750713,7.49775813 C67.4750713,7.49775813 65.9220881,12.2684108 61.1142011,17.1318535 L61.1142011,17.1318535 Z M49.9609433,11.9481913 C53.2603453,11.9481913 55.935039,9.27349759 55.935039,5.97409566 C55.935039,2.67469373 53.2603453,0 49.9609433,0 C46.6615414,0 43.9868477,2.67469373 43.9868477,5.97409566 C43.9868477,9.27349759 46.6615414,11.9481913 49.9609433,11.9481913 L49.9609433,11.9481913 Z M38.8511554,82.8681465 C43.6590424,78.0047037 46.7290095,77.7267593 49.9543663,77.7267593 C53.1797232,77.7267593 56.2261689,78.0047037 61.065943,82.8681465 C65.9057171,87.7315892 67.4750713,92.5022419 67.4750713,92.5022419 C67.4750713,92.5022419 59.5084304,83.2747538 49.9543663,83.2747534 C40.4003023,83.2747531 32.4902852,92.5022419 32.4902852,92.5022419 C32.4902852,92.5022419 34.0432684,87.7315892 38.8511554,82.8681465 L38.8511554,82.8681465 Z M50.0044132,88.0518087 C46.7050113,88.0518087 44.0303175,90.7265024 44.0303175,94.0259043 C44.0303175,97.3253063 46.7050113,100 50.0044132,100 C53.3038151,100 55.9785088,97.3253063 55.9785088,94.0259043 C55.9785088,90.7265024 53.3038151,88.0518087 50.0044132,88.0518087 L50.0044132,88.0518087 Z M81.1085618,34.6035423 C74.269899,34.6428261 71.902568,32.668568 69.6218963,30.3878963 C67.3412247,28.1072246 65.3835987,25.7565258 65.4003349,18.8953153 C65.4170711,12.0341049 67.680731,7.55104306 67.680731,7.55104306 C67.680731,7.55104306 66.7891774,19.7091283 73.5449206,26.464872 C80.3006639,33.2206157 92.4187105,32.2890225 92.4187105,32.2890225 C92.4187105,32.2890225 87.9472247,34.5642584 81.1085618,34.6035423 L81.1085618,34.6035423 Z M76.8874203,23.0515954 C79.2204498,25.3846249 83.003038,25.3846249 85.3360674,23.0515954 C87.6690969,20.7185659 87.6690969,16.9359777 85.3360674,14.6029483 C83.003038,12.2699188 79.2204498,12.2699188 76.8874203,14.6029483 C74.5543909,16.9359777 74.5543909,20.7185659 76.8874203,23.0515954 L76.8874203,23.0515954 Z M82.8681465,61.1142011 C78.0047037,56.3063141 77.7267593,53.236347 77.7267593,50.0109902 C77.7267593,46.7856334 78.0047037,43.7391877 82.8681465,38.8994135 C87.7315892,34.0596394 92.5022419,32.4902852 92.5022419,32.4902852 C92.5022419,32.4902852 83.2747538,40.4569262 83.2747534,50.0109902 C83.2747531,59.5650542 92.5022419,67.4750713 92.5022419,67.4750713 C92.5022419,67.4750713 87.7315892,65.9220881 82.8681465,61.1142011 L82.8681465,61.1142011 Z M88.0518087,49.9609433 C88.0518087,53.2603453 90.7265024,55.935039 94.0259043,55.935039 C97.3253063,55.935039 100,53.2603453 100,49.9609433 C100,46.6615414 97.3253063,43.9868477 94.0259043,43.9868477 C90.7265024,43.9868477 88.0518087,46.6615414 88.0518087,49.9609433 L88.0518087,49.9609433 Z M17.1318535,38.8511554 C21.9952963,43.6590424 22.2732407,46.7290095 22.2732407,49.9543663 C22.2732407,53.1797232 21.9952963,56.2261689 17.1318535,61.065943 C12.2684108,65.9057171 7.49775813,67.4750713 7.49775813,67.4750713 C7.49775813,67.4750713 16.7252462,59.5084304 16.7252466,49.9543663 C16.7252469,40.4003023 7.49775813,32.4902852 7.49775813,32.4902852 C7.49775813,32.4902852 12.2684108,34.0432684 17.1318535,38.8511554 L17.1318535,38.8511554 Z M11.9481913,50.0044132 C11.9481913,46.7050113 9.27349759,44.0303175 5.97409566,44.0303175 C2.67469373,44.0303175 0,46.7050113 0,50.0044132 C0,53.3038151 2.67469373,55.9785088 5.97409566,55.9785088 C9.27349759,55.9785088 11.9481913,53.3038151 11.9481913,50.0044132 L11.9481913,50.0044132 Z M34.6035423,18.8611917 C34.6428261,25.6998545 32.668568,28.0671855 30.3878963,30.3478572 C28.1072246,32.6285289 25.7565258,34.5861548 18.8953153,34.5694186 C12.0341049,34.5526824 7.55104306,32.2890225 7.55104306,32.2890225 C7.55104306,32.2890225 19.7091283,33.1805761 26.464872,26.4248329 C33.2206157,19.6690897 32.2890225,7.55104306 32.2890225,7.55104306 C32.2890225,7.55104306 34.5642584,12.0225289 34.6035423,18.8611917 L34.6035423,18.8611917 Z M23.0515954,23.0823332 C25.3846249,20.7493037 25.3846249,16.9667156 23.0515954,14.6336861 C20.7185659,12.3006566 16.9359777,12.3006566 14.6029483,14.6336861 C12.2699188,16.9667156 12.2699188,20.7493037 14.6029483,23.0823332 C16.9359777,25.4153627 20.7185659,25.4153627 23.0515954,23.0823332 L23.0515954,23.0823332 Z M65.3662113,81.1085618 C65.3269274,74.269899 67.3011856,71.902568 69.5818572,69.6218963 C71.8625289,67.3412247 74.2132277,65.3835987 81.0744382,65.4003349 C87.9356486,65.4170711 92.4187105,67.680731 92.4187105,67.680731 C92.4187105,67.680731 80.2606252,66.7891774 73.5048815,73.5449206 C66.7491378,80.3006639 67.680731,92.4187105 67.680731,92.4187105 C67.680731,92.4187105 65.4054951,87.9472247 65.3662113,81.1085618 L65.3662113,81.1085618 Z M76.9181582,76.8874203 C74.5851287,79.2204498 74.5851287,83.003038 76.9181582,85.3360674 C79.2511876,87.6690969 83.0337758,87.6690969 85.3668053,85.3360674 C87.6998347,83.003038 87.6998347,79.2204498 85.3668053,76.8874203 C83.0337758,74.5543909 79.2511876,74.5543909 76.9181582,76.8874203 L76.9181582,76.8874203 Z M18.8431163,65.3662113 C25.6817792,65.3269274 28.0491102,67.3011856 30.3297818,69.5818572 C32.6104535,71.8625289 34.5680795,74.2132277 34.5513433,81.0744382 C34.534607,87.9356486 32.2709472,92.4187105 32.2709472,92.4187105 C32.2709472,92.4187105 33.1625008,80.2606252 26.4067575,73.5048815 C19.6510143,66.7491378 7.5329677,67.680731 7.5329677,67.680731 C7.5329677,67.680731 12.0044535,65.4054951 18.8431163,65.3662113 L18.8431163,65.3662113 Z M23.0642578,76.9181582 C20.7312284,74.5851287 16.9486402,74.5851287 14.6156107,76.9181582 C12.2825813,79.2511876 12.2825813,83.0337758 14.6156107,85.3668053 C16.9486402,87.6998347 20.7312284,87.6998347 23.0642578,85.3668053 C25.3972873,83.0337758 25.3972873,79.2511876 23.0642578,76.9181582 L23.0642578,76.9181582 Z"></path></g></g></g><g id="SvgjsG1974" featurekey="nameFeature-0" transform="matrix(0.3085086941719055,0,0,0.3085086941719055,129.66681093882087,47.5447025016149)" fill="#111111"><path d="M1.08 39.4 l0 -5.64 c0.48 0.12 1.08 0.24 1.76 0.32 c0.68 0.12 1.4 0.2 2.16 0.24 s1.52 0.08 2.32 0.12 s1.56 0.08 2.24 0.08 c1.88 0 3.2 -0.12 4 -0.32 c0.76 -0.2 1.16 -0.56 1.16 -1.12 c0 -0.48 -0.36 -0.84 -0.72 -1.12 c-1.32 -0.88 -2.88 -1.24 -4.44 -1.6 c-4.4 -0.88 -8.44 -2.64 -8.44 -7.68 c0 -5.96 5.64 -7.36 10.48 -7.36 c2.68 0 5.4 0.28 8 0.92 l0 5.64 c-0.4 -0.12 -0.92 -0.2 -1.56 -0.32 c-0.68 -0.08 -1.36 -0.16 -2.12 -0.24 c-1.56 -0.16 -3.04 -0.24 -4.6 -0.24 c-0.88 0 -2.72 0 -3.56 0.32 c-0.56 0.2 -0.92 0.44 -0.92 1.08 c0 0.32 0.08 0.6 0.24 0.84 c0.16 0.28 0.44 0.48 0.8 0.68 c1.08 0.6 2.48 0.96 3.68 1.24 c1 0.24 2 0.52 3.04 0.8 c3.52 0.96 5.84 2.92 5.84 6.68 c0 6.2 -6.16 7.52 -11.12 7.52 c-2.72 0 -5.56 -0.2 -8.24 -0.84 z M32.92 34.64 c2.92 0 4.6 -1.72 4.6 -4.64 s-1.68 -4.64 -4.6 -4.64 s-4.6 1.72 -4.6 4.64 s1.68 4.64 4.6 4.64 z M32.92 40.2 c-6.16 0 -10.6 -4.08 -10.6 -10.2 c0 -6.32 4.6 -10.2 10.6 -10.2 c6.2 0 10.6 4.08 10.6 10.2 c0 6.28 -4.64 10.2 -10.6 10.2 z M62.08 33.4 l0 6 c-2.04 0.68 -4.16 0.88 -6.28 0.88 c-6.2 0 -10.6 -4.12 -10.6 -10.24 c0 -6.36 4.56 -10.24 10.6 -10.24 c2.12 0 4.24 0.2 6.28 0.88 l0 6 c-1.76 -0.92 -3.96 -1.16 -5.92 -1.16 c-1.32 0 -2.92 0.28 -3.84 1.32 c-0.84 0.84 -1.12 2.04 -1.12 3.16 c0 0.64 0.08 1.24 0.28 1.76 c0.16 0.56 0.44 1.04 0.84 1.44 c0.88 1.08 2.52 1.36 3.84 1.36 c1.76 0 4.36 -0.32 5.92 -1.16 z M65.64 20 l6 0 l0 20 l-6 0 l0 -20 z M68.64 18.12 c-2.04 0 -3.48 -1.44 -3.48 -3.48 c0 -2.08 1.44 -3.44 3.48 -3.44 c2.08 0 3.44 1.36 3.44 3.44 c0 2.12 -1.32 3.48 -3.44 3.48 z M89.88 30 c-0.16 -2.92 -1.48 -4.64 -4.52 -4.64 c-0.84 0 -1.56 0.12 -2.16 0.36 c-1.84 0.84 -2.52 2.4 -2.52 4.32 c0 0.64 0.08 1.24 0.28 1.76 c0.6 2.08 2.4 2.84 4.4 2.84 c3.04 0 4.52 -1.64 4.52 -4.64 z M97.48 40 l-6 0 c-0.4 -1 -0.76 -2 -1 -3.04 c-1.36 2.24 -3.44 3.24 -6 3.24 c-5.72 0 -9.8 -4.8 -9.8 -10.28 c0 -6.32 4.72 -10.12 10.68 -10.12 c6.36 0 10.36 4.08 10.52 10.2 c0.04 0.52 0.04 1.12 0.04 1.84 c0 2.8 0.44 5.6 1.56 8.16 z M99.67999999999999 12 l6 0 l0 28 l-6 0 l0 -28 z M117.52 15.52 l20.4 0 l0 5.56 l-7.2 0 l0 18.92 l-6 0 l0 -18.92 l-7.2 0 l0 -5.56 z M143.28 27.6 c0.6 0.2 1.28 0.36 2 0.44 c0.72 0.12 1.4 0.16 2.04 0.16 c0.8 0 2.84 -0.16 2.84 -1.32 c0 -1.24 -1.76 -1.28 -2.64 -1.28 c-1.76 0 -3.28 0.4 -4.24 2 z M154.6 33.76 l0 5.6 c-2.24 0.52 -4.48 0.88 -6.8 0.88 c-6.36 0 -11.08 -3.72 -11.08 -10.16 c0 -6.36 4.56 -10.28 10.6 -10.28 c4.12 0 8.88 1.96 8.88 6.64 c0 4.64 -5.04 6.36 -8.92 6.36 c-1.48 0 -2.96 -0.4 -4.32 -0.96 c0.8 2.24 3.2 2.6 5.28 2.6 c1.08 0 2.16 -0.04 3.24 -0.2 c1 -0.08 2.16 -0.2 3.12 -0.48 z M174.88 33.4 l0 6 c-2.04 0.68 -4.16 0.88 -6.28 0.88 c-6.2 0 -10.6 -4.12 -10.6 -10.24 c0 -6.36 4.56 -10.24 10.6 -10.24 c2.12 0 4.24 0.2 6.28 0.88 l0 6 c-1.76 -0.92 -3.96 -1.16 -5.92 -1.16 c-1.32 0 -2.92 0.28 -3.84 1.32 c-0.84 0.84 -1.12 2.04 -1.12 3.16 c0 0.64 0.08 1.24 0.28 1.76 c0.16 0.56 0.44 1.04 0.84 1.44 c0.88 1.08 2.52 1.36 3.84 1.36 c1.76 0 4.36 -0.32 5.92 -1.16 z M184.51999999999998 30 l0 10 l-6 0 l0 -28 l6 0 l0 9.84 c1.4 -1.48 3.16 -2.04 5.16 -2.04 c5.68 0 9.24 4.88 9.24 10.2 l0 10 l-6 0 l0 -10 c0 -2.72 -1.08 -4.64 -4 -4.64 c-2.88 0 -4.4 1.84 -4.4 4.64 z M223 30 l0 10 l-6 0 l0 -10 c0 -2.76 -1.28 -4.64 -4.2 -4.64 c-2.88 0 -4.2 1.92 -4.2 4.64 l0 10 l-6 0 l0 -10 c0 -6.16 4.24 -10.2 10.2 -10.2 c6.2 0 10.2 4.24 10.2 10.2 z M226.48000000000002 20 l6 0 l0 20 l-6 0 l0 -20 z M229.48000000000002 18.12 c-2.04 0 -3.48 -1.44 -3.48 -3.48 c0 -2.08 1.44 -3.44 3.48 -3.44 c2.08 0 3.44 1.36 3.44 3.44 c0 2.12 -1.32 3.48 -3.44 3.48 z M252.4 33.4 l0 6 c-2.04 0.68 -4.16 0.88 -6.28 0.88 c-6.2 0 -10.6 -4.12 -10.6 -10.24 c0 -6.36 4.56 -10.24 10.6 -10.24 c2.12 0 4.24 0.2 6.28 0.88 l0 6 c-1.76 -0.92 -3.96 -1.16 -5.92 -1.16 c-1.32 0 -2.92 0.28 -3.84 1.32 c-0.84 0.84 -1.12 2.04 -1.12 3.16 c0 0.64 0.08 1.24 0.28 1.76 c0.16 0.56 0.44 1.04 0.84 1.44 c0.88 1.08 2.52 1.36 3.84 1.36 c1.76 0 4.36 -0.32 5.92 -1.16 z M270.2 30 c-0.16 -2.92 -1.48 -4.64 -4.52 -4.64 c-0.84 0 -1.56 0.12 -2.16 0.36 c-1.84 0.84 -2.52 2.4 -2.52 4.32 c0 0.64 0.08 1.24 0.28 1.76 c0.6 2.08 2.4 2.84 4.4 2.84 c3.04 0 4.52 -1.64 4.52 -4.64 z M277.8 40 l-6 0 c-0.4 -1 -0.76 -2 -1 -3.04 c-1.36 2.24 -3.44 3.24 -6 3.24 c-5.72 0 -9.8 -4.8 -9.8 -10.28 c0 -6.32 4.72 -10.12 10.68 -10.12 c6.36 0 10.36 4.08 10.52 10.2 c0.04 0.52 0.04 1.12 0.04 1.84 c0 2.8 0.44 5.6 1.56 8.16 z M280 12 l6 0 l0 28 l-6 0 l0 -28 z M299.24 15.52 l6 0 l0 24.48 l-6 0 l0 -24.48 z M329.88 30 l0 10 l-6 0 l0 -10 c0 -2.76 -1.28 -4.64 -4.2 -4.64 c-2.88 0 -4.2 1.92 -4.2 4.64 l0 10 l-6 0 l0 -10 c0 -6.16 4.24 -10.2 10.2 -10.2 c6.2 0 10.2 4.24 10.2 10.2 z M353.96 30 l0 10 l-6 0 l0 -10 c0 -2.76 -1.28 -4.64 -4.2 -4.64 c-2.88 0 -4.2 1.92 -4.2 4.64 l0 10 l-6 0 l0 -10 c0 -6.16 4.24 -10.2 10.2 -10.2 c6.2 0 10.2 4.24 10.2 10.2 z M367.08 34.64 c2.92 0 4.6 -1.72 4.6 -4.64 s-1.68 -4.64 -4.6 -4.64 s-4.6 1.72 -4.6 4.64 s1.68 4.64 4.6 4.64 z M367.08 40.2 c-6.16 0 -10.6 -4.08 -10.6 -10.2 c0 -6.32 4.6 -10.2 10.6 -10.2 c6.2 0 10.6 4.08 10.6 10.2 c0 6.28 -4.64 10.2 -10.6 10.2 z M399.79999999999995 20 l-8.2 20 l-6 0 l-8.2 -20 l5.96 0 c0.88 2.28 1.76 4.52 2.64 6.8 c0.84 2.28 1.72 4.52 2.6 6.8 c0.88 -2.28 1.76 -4.52 2.64 -6.8 c0.84 -2.28 1.72 -4.52 2.6 -6.8 l5.96 0 z M414.71999999999997 30 c-0.16 -2.92 -1.48 -4.64 -4.52 -4.64 c-0.84 0 -1.56 0.12 -2.16 0.36 c-1.84 0.84 -2.52 2.4 -2.52 4.32 c0 0.64 0.08 1.24 0.28 1.76 c0.6 2.08 2.4 2.84 4.4 2.84 c3.04 0 4.52 -1.64 4.52 -4.64 z M422.31999999999994 40 l-6 0 c-0.4 -1 -0.76 -2 -1 -3.04 c-1.36 2.24 -3.44 3.24 -6 3.24 c-5.72 0 -9.8 -4.8 -9.8 -10.28 c0 -6.32 4.72 -10.12 10.68 -10.12 c6.36 0 10.36 4.08 10.52 10.2 c0.04 0.52 0.04 1.12 0.04 1.84 c0 2.8 0.44 5.6 1.56 8.16 z M435.5199999999999 20.68 l0 5.56 l-5.6 0 l0 3.76 c0 3.08 2.04 4.64 5 4.64 c0.36 0 0.68 -0.04 0.96 -0.08 s0.52 -0.08 0.8 -0.12 l0 5.56 c-0.36 0.04 -0.64 0.12 -0.84 0.16 c-0.24 0.04 -0.64 0.04 -1.16 0.04 c-6.04 0 -10.76 -4.12 -10.76 -10.2 l0 -14.8 l6 0 l0 5.48 l5.6 0 z M438.8399999999999 20 l6 0 l0 20 l-6 0 l0 -20 z M441.8399999999999 18.12 c-2.04 0 -3.48 -1.44 -3.48 -3.48 c0 -2.08 1.44 -3.44 3.48 -3.44 c2.08 0 3.44 1.36 3.44 3.44 c0 2.12 -1.32 3.48 -3.44 3.48 z M458.4799999999999 34.64 c2.92 0 4.6 -1.72 4.6 -4.64 s-1.68 -4.64 -4.6 -4.64 s-4.6 1.72 -4.6 4.64 s1.68 4.64 4.6 4.64 z M458.4799999999999 40.2 c-6.16 0 -10.6 -4.08 -10.6 -10.2 c0 -6.32 4.6 -10.2 10.6 -10.2 c6.2 0 10.6 4.08 10.6 10.2 c0 6.28 -4.64 10.2 -10.6 10.2 z M492.3199999999999 30 l0 10 l-6 0 l0 -10 c0 -2.76 -1.28 -4.64 -4.2 -4.64 c-2.88 0 -4.2 1.92 -4.2 4.64 l0 10 l-6 0 l0 -10 c0 -6.16 4.24 -10.2 10.2 -10.2 c6.2 0 10.2 4.24 10.2 10.2 z M523.1199999999999 27.439999999999998 c1.76 1.24 2.8 3.08 2.8 5.24 c0 4.16 -3.84 7.32 -7.84 7.32 l-13 0 l0 -24.48 l12.2 0 c3.2 0 5.84 1.72 7.24 4.56 c0.4 0.92 0.6 1.84 0.6 2.8 c0 1.8 -0.72 3.28 -2 4.56 z M511.07999999999987 21.08 l0 3.92 l6.2 0 c1.04 0 1.84 -1 1.84 -2 c0 -1.04 -0.76 -1.92 -1.84 -1.92 l-6.2 0 z M511.07999999999987 30.560000000000002 l0 3.88 l7 0 c1.08 0 1.84 -0.88 1.84 -1.92 c0 -0.52 -0.2 -1 -0.56 -1.4 c-0.36 -0.36 -0.8 -0.56 -1.28 -0.56 l-7 0 z M543.1199999999999 20 l6 0 l0 10 c0 6.12 -4.24 10.2 -10.2 10.2 c-6.12 0 -10.2 -4.28 -10.2 -10.2 l0 -10 l6 0 l0 10 c0 2.68 1.36 4.64 4.2 4.64 c2.92 0 4.2 -1.92 4.2 -4.64 l0 -10 z M573.5199999999999 30 l0 10 l-6 0 l0 -10 c0 -2.76 -1.28 -4.64 -4.2 -4.64 c-2.88 0 -4.2 1.92 -4.2 4.64 l0 10 l-6 0 l0 -10 c0 -6.16 4.24 -10.2 10.2 -10.2 c6.2 0 10.2 4.24 10.2 10.2 z M591.2399999999999 30 c0 -3 -1.48 -4.64 -4.52 -4.64 c-0.84 0 -1.56 0.12 -2.16 0.36 c-1.12 0.52 -1.88 1.28 -2.24 2.48 c-0.2 0.56 -0.28 1.16 -0.28 1.8 s0.08 1.24 0.28 1.8 c0.32 1.16 1.16 2 2.24 2.44 c0.6 0.28 1.32 0.4 2.16 0.4 c3.04 0 4.52 -1.64 4.52 -4.64 z M591.2399999999999 22 l0 -10 l6 0 l0 18 c0 6.36 -4.52 10.2 -10.56 10.2 c-6.16 0 -10.64 -4 -10.64 -10.12 c0 -5.64 4.16 -10.28 9.84 -10.28 c2.12 0 3.96 0.6 5.36 2.2 z M601.0399999999998 12 l6 0 l0 28 l-6 0 l0 -28 z M616.6399999999999 27.6 c0.6 0.2 1.28 0.36 2 0.44 c0.72 0.12 1.4 0.16 2.04 0.16 c0.8 0 2.84 -0.16 2.84 -1.32 c0 -1.24 -1.76 -1.28 -2.64 -1.28 c-1.76 0 -3.28 0.4 -4.24 2 z M627.9599999999999 33.76 l0 5.6 c-2.24 0.52 -4.48 0.88 -6.8 0.88 c-6.36 0 -11.08 -3.72 -11.08 -10.16 c0 -6.36 4.56 -10.28 10.6 -10.28 c4.12 0 8.88 1.96 8.88 6.64 c0 4.64 -5.04 6.36 -8.92 6.36 c-1.48 0 -2.96 -0.4 -4.32 -0.96 c0.8 2.24 3.2 2.6 5.28 2.6 c1.08 0 2.16 -0.04 3.24 -0.2 c1 -0.08 2.16 -0.2 3.12 -0.48 z M631.5999999999999 39.36 l0 -5.6 c2.64 0.8 5.96 0.96 8.68 0.96 c1.08 0 1.92 -0.04 2.52 -0.16 c0.56 -0.08 0.84 -0.28 0.84 -0.56 c0 -0.12 -0.04 -0.2 -0.12 -0.32 c-0.4 -0.4 -1.28 -0.6 -1.8 -0.72 s-1.2 -0.28 -2.04 -0.44 c-0.68 -0.12 -1.48 -0.28 -2.4 -0.48 c-3.12 -0.68 -5.52 -2.44 -5.52 -5.8 c0 -4.96 4.84 -6.44 8.92 -6.44 c2.56 0 5.12 0.36 7.64 0.88 l0 5.64 c-2.52 -0.76 -5.36 -0.96 -8 -0.96 c-1.04 0 -1.76 0.04 -2.2 0.16 s-0.68 0.32 -0.68 0.56 c0 0.36 0.36 0.6 1.04 0.72 c0.68 0.16 1.64 0.36 2.8 0.56 c1.04 0.2 2.04 0.4 3 0.64 c2.96 0.76 5.08 2.36 5.08 5.56 c0 5.36 -5.4 6.68 -9.72 6.68 c-2.72 0 -5.4 -0.36 -8.04 -0.88 z"></path></g></svg>